# MagicaVoxel @ Ephtracy

# material
mtllib room2.mtl
usemtl palette

# normals
vn -1 0 0
vn 1 0 0
vn 0 0 1
vn 0 0 -1
vn 0 -1 0
vn 0 1 0

# texcoords
vt 0.00585938 0.5
vt 0.369141 0.5
vt 0.396484 0.5

# verts
v -50 0 50
v -50 0 -50
v -50 31 50
v -50 31 -50
v -50 32 50
v -50 32 -50
v 6 2 50
v 6 2 48
v 6 24 50
v 6 24 48
v 46 2 48
v 46 2 46
v 46 2 -46
v 46 2 -48
v 46 4 48
v 46 4 -48
v 46 30 48
v 46 30 -48
v 46 32 48
v 46 32 46
v 46 32 -46
v 46 32 -48
v 48 2 46
v 48 2 -46
v 48 4 46
v 48 4 -46
v 48 30 46
v 48 30 -46
v 48 32 46
v 48 32 -46
v -48 2 46
v -48 2 -46
v -48 4 46
v -48 4 -46
v -48 30 46
v -48 30 -46
v -48 32 46
v -48 32 -46
v -46 2 48
v -46 2 46
v -46 2 -46
v -46 2 -48
v -46 4 48
v -46 4 -48
v -46 30 48
v -46 30 -48
v -46 32 48
v -46 32 46
v -46 32 -46
v -46 32 -48
v -7 2 50
v -7 2 48
v -7 24 50
v -7 24 48
v 50 0 50
v 50 0 -50
v 50 31 50
v 50 31 -50
v 50 32 50
v 50 32 -50
v -50 0 50
v -50 31 50
v -50 32 50
v -8 1 50
v -8 25 50
v -7 2 50
v -7 24 50
v 6 2 50
v 6 24 50
v 7 1 50
v 7 25 50
v 50 0 50
v 50 31 50
v 50 32 50
v -48 2 -46
v -48 4 -46
v -48 30 -46
v -48 32 -46
v -46 2 -46
v -46 32 -46
v 46 2 -46
v 46 32 -46
v 48 2 -46
v 48 4 -46
v 48 30 -46
v 48 32 -46
v -46 2 -48
v -46 4 -48
v -46 30 -48
v -46 32 -48
v 46 2 -48
v 46 4 -48
v 46 30 -48
v 46 32 -48
v -46 2 48
v -46 4 48
v -46 30 48
v -46 32 48
v -8 4 48
v -8 25 48
v -7 2 48
v -7 24 48
v 6 2 48
v 6 24 48
v 7 4 48
v 7 25 48
v 46 2 48
v 46 4 48
v 46 30 48
v 46 32 48
v -48 2 46
v -48 4 46
v -48 30 46
v -48 32 46
v -46 2 46
v -46 32 46
v 46 2 46
v 46 32 46
v 48 2 46
v 48 4 46
v 48 30 46
v 48 32 46
v -50 0 -50
v -50 31 -50
v -50 32 -50
v 50 0 -50
v 50 31 -50
v 50 32 -50
v -50 0 50
v 50 0 50
v -48 0 48
v 48 0 48
v -48 0 -48
v 48 0 -48
v -50 0 -50
v 50 0 -50
v -7 24 50
v 6 24 50
v -7 24 48
v 6 24 48
v -7 2 50
v 6 2 50
v -46 2 48
v -7 2 48
v 6 2 48
v 46 2 48
v -48 2 46
v -46 2 46
v 46 2 46
v 48 2 46
v -48 2 -46
v -46 2 -46
v 46 2 -46
v 48 2 -46
v -46 2 -48
v 46 2 -48
v -50 32 50
v 50 32 50
v -46 32 48
v 46 32 48
v -48 32 46
v -46 32 46
v 46 32 46
v 48 32 46
v -48 32 -46
v -46 32 -46
v 46 32 -46
v 48 32 -46
v -46 32 -48
v 46 32 -48
v -50 32 -50
v 50 32 -50

# faces
f 3/1/1 2/1/1 1/1/1
f 4/1/1 2/1/1 3/1/1
f 5/3/1 4/3/1 3/3/1
f 6/3/1 4/3/1 5/3/1
f 9/3/1 8/3/1 7/3/1
f 10/3/1 8/3/1 9/3/1
f 15/3/1 12/3/1 11/3/1
f 16/3/1 14/3/1 13/3/1
f 17/3/1 12/3/1 15/3/1
f 18/3/1 16/3/1 13/3/1
f 19/3/1 12/3/1 17/3/1
f 20/3/1 12/3/1 19/3/1
f 21/3/1 18/3/1 13/3/1
f 22/3/1 18/3/1 21/3/1
f 25/3/1 24/3/1 23/3/1
f 26/3/1 24/3/1 25/3/1
f 27/1/1 26/1/1 25/1/1
f 28/1/1 26/1/1 27/1/1
f 29/3/1 28/3/1 27/3/1
f 30/3/1 28/3/1 29/3/1
f 31/3/2 32/3/2 33/3/2
f 33/3/2 32/3/2 34/3/2
f 33/1/2 34/1/2 35/1/2
f 35/1/2 34/1/2 36/1/2
f 35/3/2 36/3/2 37/3/2
f 37/3/2 36/3/2 38/3/2
f 39/3/2 40/3/2 43/3/2
f 41/3/2 42/3/2 44/3/2
f 43/3/2 40/3/2 45/3/2
f 41/3/2 44/3/2 46/3/2
f 45/3/2 40/3/2 47/3/2
f 47/3/2 40/3/2 48/3/2
f 41/3/2 46/3/2 49/3/2
f 49/3/2 46/3/2 50/3/2
f 51/3/2 52/3/2 53/3/2
f 53/3/2 52/3/2 54/3/2
f 55/1/2 56/1/2 57/1/2
f 57/1/2 56/1/2 58/1/2
f 57/3/2 58/3/2 59/3/2
f 59/3/2 58/3/2 60/3/2
f 64/1/3 62/1/3 61/1/3
f 65/1/3 62/1/3 64/1/3
f 66/3/3 65/3/3 64/3/3
f 67/3/3 65/3/3 66/3/3
f 68/3/3 66/3/3 64/3/3
f 69/3/3 65/3/3 67/3/3
f 70/1/3 64/1/3 61/1/3
f 70/3/3 69/3/3 68/3/3
f 70/3/3 68/3/3 64/3/3
f 71/3/3 65/3/3 69/3/3
f 71/3/3 69/3/3 70/3/3
f 71/1/3 62/1/3 65/1/3
f 72/1/3 70/1/3 61/1/3
f 72/1/3 71/1/3 70/1/3
f 73/3/3 63/3/3 62/3/3
f 73/1/3 71/1/3 72/1/3
f 73/1/3 62/1/3 71/1/3
f 74/3/3 63/3/3 73/3/3
f 79/3/3 76/3/3 75/3/3
f 79/3/3 78/3/3 77/3/3
f 79/3/3 77/3/3 76/3/3
f 80/3/3 78/3/3 79/3/3
f 83/3/3 82/3/3 81/3/3
f 84/3/3 82/3/3 83/3/3
f 85/3/3 82/3/3 84/3/3
f 86/3/3 82/3/3 85/3/3
f 91/3/3 88/3/3 87/3/3
f 92/1/3 89/1/3 88/1/3
f 92/3/3 88/3/3 91/3/3
f 93/3/3 90/3/3 89/3/3
f 93/1/3 89/1/3 92/1/3
f 94/3/3 90/3/3 93/3/3
f 95/3/4 96/3/4 99/3/4
f 96/1/4 97/1/4 99/1/4
f 99/1/4 97/1/4 100/1/4
f 95/3/4 99/3/4 101/3/4
f 99/3/4 100/3/4 101/3/4
f 101/3/4 100/3/4 102/3/4
f 102/3/4 100/3/4 104/3/4
f 103/3/4 104/3/4 105/3/4
f 100/1/4 97/1/4 106/1/4
f 105/3/4 104/3/4 106/3/4
f 104/3/4 100/3/4 106/3/4
f 103/3/4 105/3/4 107/3/4
f 105/1/4 106/1/4 108/1/4
f 107/3/4 105/3/4 108/3/4
f 97/3/4 98/3/4 109/3/4
f 108/1/4 106/1/4 109/1/4
f 106/1/4 97/1/4 109/1/4
f 109/3/4 98/3/4 110/3/4
f 111/3/4 112/3/4 115/3/4
f 113/3/4 114/3/4 115/3/4
f 112/3/4 113/3/4 115/3/4
f 115/3/4 114/3/4 116/3/4
f 117/3/4 118/3/4 119/3/4
f 119/3/4 118/3/4 120/3/4
f 120/3/4 118/3/4 121/3/4
f 121/3/4 118/3/4 122/3/4
f 123/1/4 124/1/4 126/1/4
f 124/3/4 125/3/4 127/3/4
f 126/1/4 124/1/4 127/1/4
f 127/3/4 125/3/4 128/3/4
f 131/1/5 130/1/5 129/1/5
f 132/1/5 130/1/5 131/1/5
f 133/1/5 131/1/5 129/1/5
f 133/2/5 132/2/5 131/2/5
f 134/1/5 130/1/5 132/1/5
f 134/2/5 132/2/5 133/2/5
f 135/1/5 133/1/5 129/1/5
f 135/1/5 134/1/5 133/1/5
f 136/1/5 130/1/5 134/1/5
f 136/1/5 134/1/5 135/1/5
f 139/3/5 138/3/5 137/3/5
f 140/3/5 138/3/5 139/3/5
f 141/3/6 142/3/6 144/3/6
f 144/3/6 142/3/6 145/3/6
f 143/2/6 144/2/6 148/2/6
f 145/2/6 146/2/6 148/2/6
f 144/2/6 145/2/6 148/2/6
f 148/2/6 146/2/6 149/2/6
f 147/2/6 148/2/6 151/2/6
f 149/2/6 150/2/6 151/2/6
f 148/2/6 149/2/6 151/2/6
f 151/2/6 150/2/6 152/2/6
f 152/2/6 150/2/6 153/2/6
f 153/2/6 150/2/6 154/2/6
f 152/2/6 153/2/6 155/2/6
f 155/2/6 153/2/6 156/2/6
f 157/3/6 158/3/6 159/3/6
f 159/3/6 158/3/6 160/3/6
f 157/3/6 159/3/6 161/3/6
f 161/3/6 159/3/6 162/3/6
f 160/3/6 158/3/6 163/3/6
f 163/3/6 158/3/6 164/3/6
f 157/3/6 161/3/6 165/3/6
f 164/3/6 158/3/6 168/3/6
f 165/3/6 166/3/6 169/3/6
f 167/3/6 168/3/6 170/3/6
f 165/3/6 169/3/6 171/3/6
f 169/3/6 170/3/6 171/3/6
f 157/3/6 165/3/6 171/3/6
f 170/3/6 168/3/6 172/3/6
f 171/3/6 170/3/6 172/3/6
f 168/3/6 158/3/6 172/3/6
